<svg width="27" height="24" viewBox="0 0 27 24" fill="none" xmlns="http://www.w3.org/2000/svg">
<path d="M13.6322 24C13.2468 24 12.8737 23.9503 12.5628 23.8383C7.81257 22.2093 0.264404 16.427 0.264404 7.88398C0.264404 3.53167 3.78357 6.82339e-05 8.11101 6.82339e-05C10.2126 6.82339e-05 12.1773 0.820791 13.6322 2.28814C14.3545 1.55927 15.2147 0.981553 16.1627 0.588708C17.1106 0.195862 18.1273 -0.00424383 19.1535 6.82339e-05C23.4809 6.82339e-05 27.0001 3.5441 27.0001 7.88398C27.0001 16.4394 19.4519 22.2093 14.7017 23.8383C14.3908 23.9503 14.0177 24 13.6322 24ZM8.11101 1.86535C4.81569 1.86535 2.12968 4.56379 2.12968 7.88398C2.12968 16.3772 10.2996 21.1026 13.1721 22.085C13.396 22.1596 13.8809 22.1596 14.1048 22.085C16.9649 21.1026 25.1472 16.3897 25.1472 7.88398C25.1472 4.56379 22.4612 1.86535 19.1659 1.86535C17.2758 1.86535 15.5224 2.74825 14.3908 4.27778C14.0426 4.75031 13.2468 4.75031 12.8986 4.27778C12.346 3.52803 11.6246 2.91894 10.7929 2.49983C9.96114 2.08072 9.04239 1.86336 8.11101 1.86535Z" fill="#8B3E00"/>
</svg>
