<svg width="21" height="24" viewBox="0 0 21 24" fill="none" xmlns="http://www.w3.org/2000/svg">
<path d="M10.3864 24C11.7403 24 12.848 22.8923 12.848 21.5385H7.9249C7.9249 22.8923 9.03259 24 10.3864 24ZM17.7711 16.6154V10.4615C17.7711 6.68308 15.7649 3.52 12.2326 2.68308V0H8.54028V2.68308C5.02028 3.52 3.00182 6.67077 3.00182 10.4615V16.6154L0.540283 19.0769V20.3077H20.2326V19.0769L17.7711 16.6154ZM15.3095 17.8462H5.46336V10.4615C5.46336 7.40923 7.32182 4.92308 10.3864 4.92308C13.4511 4.92308 15.3095 7.40923 15.3095 10.4615V17.8462Z" fill="#8B3E00"/>
</svg>
