<svg width="24" height="24" viewBox="0 0 24 24" fill="none" xmlns="http://www.w3.org/2000/svg">
<path fill-rule="evenodd" clip-rule="evenodd" d="M11.9026 7.81395C10.7924 7.81395 9.72765 8.25498 8.94262 9.04002C8.15758 9.82505 7.71655 10.8898 7.71655 12C7.71655 13.1102 8.15758 14.1749 8.94262 14.96C9.72765 15.745 10.7924 16.186 11.9026 16.186C13.0128 16.186 14.0775 15.745 14.8626 14.96C15.6476 14.1749 16.0886 13.1102 16.0886 12C16.0886 10.8898 15.6476 9.82505 14.8626 9.04002C14.0775 8.25498 13.0128 7.81395 11.9026 7.81395ZM9.39097 12C9.39097 11.3339 9.65559 10.695 10.1266 10.224C10.5976 9.75299 11.2365 9.48837 11.9026 9.48837C12.5687 9.48837 13.2076 9.75299 13.6786 10.224C14.1496 10.695 14.4142 11.3339 14.4142 12C14.4142 12.6661 14.1496 13.305 13.6786 13.776C13.2076 14.247 12.5687 14.5116 11.9026 14.5116C11.2365 14.5116 10.5976 14.247 10.1266 13.776C9.65559 13.305 9.39097 12.6661 9.39097 12Z" fill="#8B3E00"/>
<path fill-rule="evenodd" clip-rule="evenodd" d="M11.8744 0C11.3777 0 10.9635 -2.07923e-08 10.6242 0.0223256C10.2773 0.0367699 9.93521 0.108433 9.61171 0.234419C9.23915 0.388565 8.90061 0.614593 8.61542 0.899595C8.33022 1.1846 8.10397 1.52299 7.94957 1.89544C7.78771 2.28614 7.74417 2.69916 7.72631 3.14791C7.72453 3.31202 7.68108 3.473 7.60005 3.61573C7.51902 3.75845 7.40307 3.87826 7.26306 3.96391C7.11893 4.04261 6.95716 4.08339 6.79294 4.08241C6.62873 4.08143 6.46745 4.03873 6.32427 3.95833C5.92687 3.74847 5.54734 3.57991 5.12762 3.52409C4.72793 3.47152 4.3218 3.49819 3.93241 3.60257C3.54303 3.70696 3.17802 3.88701 2.85822 4.13247C2.58783 4.35001 2.35513 4.61061 2.16948 4.90381C1.97971 5.18735 1.77208 5.54567 1.52427 5.97544L1.49636 6.02456C1.24743 6.45433 1.04092 6.81265 0.891337 7.11851C0.735058 7.43777 0.612267 7.75256 0.567616 8.10084C0.461123 8.9079 0.679556 9.72421 1.17487 10.3702C1.43273 10.7062 1.76873 10.9507 2.14827 11.1896C2.28977 11.2732 2.40766 11.3915 2.49085 11.5333C2.57404 11.6751 2.61979 11.8357 2.6238 12C2.61979 12.1643 2.57404 12.3249 2.49085 12.4667C2.40766 12.6085 2.28977 12.7268 2.14827 12.8104C1.76873 13.0493 1.43385 13.2938 1.17487 13.6298C0.929421 13.9496 0.749362 14.3146 0.644978 14.704C0.540593 15.0933 0.513926 15.4995 0.5665 15.8992C0.612267 16.2474 0.733942 16.5622 0.890221 16.8815C1.04092 17.1873 1.24743 17.5457 1.49636 17.9754L1.52427 18.0246C1.77208 18.4543 1.97971 18.8127 2.16948 19.0962C2.36706 19.3898 2.57915 19.6543 2.85822 19.8664C3.17793 20.1121 3.54291 20.2923 3.93229 20.3969C4.32168 20.5015 4.72785 20.5283 5.12762 20.4759C5.54734 20.4201 5.92687 20.2527 6.32427 20.0417C6.46728 19.9614 6.62836 19.9187 6.79238 19.9177C6.9564 19.9168 7.11798 19.9575 7.26194 20.0361C7.40273 20.1211 7.51941 20.2407 7.60089 20.3835C7.68237 20.5263 7.72594 20.6877 7.72743 20.8521C7.74417 21.3008 7.78771 21.7139 7.95069 22.1046C8.10483 22.4771 8.33086 22.8157 8.61586 23.1009C8.90086 23.386 9.23925 23.6123 9.61171 23.7667C9.93543 23.9007 10.2703 23.9531 10.6242 23.9766C10.9635 24 11.3777 24 11.8744 24H11.9302C12.427 24 12.8411 24 13.1805 23.9777C13.5354 23.9531 13.8692 23.9007 14.1929 23.7656C14.5655 23.6114 14.904 23.3854 15.1892 23.1004C15.4744 22.8154 15.7007 22.477 15.8551 22.1046C16.0169 21.7139 16.0605 21.3008 16.0783 20.8521C16.0799 20.6878 16.1233 20.5266 16.2043 20.3836C16.2853 20.2407 16.4014 20.1207 16.5416 20.035C16.6858 19.9564 16.8476 19.9159 17.0118 19.917C17.176 19.9182 17.3373 19.9611 17.4804 20.0417C17.8778 20.2515 18.2573 20.4201 18.677 20.4748C19.4841 20.5813 20.3004 20.3629 20.9464 19.8675C21.2255 19.6532 21.4376 19.3898 21.6352 19.0962C21.8249 18.8127 22.0325 18.4543 22.2804 18.0246L22.3083 17.9754C22.5572 17.5457 22.7637 17.1873 22.9133 16.8815C23.0696 16.5622 23.1924 16.2463 23.237 15.8992C23.3435 15.0921 23.1251 14.2758 22.6298 13.6298C22.3719 13.2938 22.0359 13.0493 21.6564 12.8104C21.5149 12.7268 21.397 12.6085 21.3138 12.4667C21.2306 12.3249 21.1848 12.1643 21.1808 12C21.1808 11.6897 21.3505 11.3816 21.6564 11.1896C22.0359 10.9507 22.3708 10.7062 22.6298 10.3702C22.8752 10.0504 23.0553 9.68543 23.1597 9.29604C23.264 8.90666 23.2907 8.50053 23.2381 8.10084C23.185 7.75782 23.0756 7.42591 22.9144 7.11851C22.7238 6.74763 22.5217 6.3828 22.3083 6.02456L22.2804 5.97544C22.0764 5.61163 21.8613 5.25425 21.6352 4.90381C21.4495 4.61092 21.2168 4.35068 20.9464 4.13358C20.6267 3.88794 20.2617 3.70768 19.8723 3.6031C19.4829 3.49852 19.0768 3.47168 18.677 3.52409C18.2573 3.57991 17.8778 3.74735 17.4804 3.95833C17.3373 4.03854 17.1762 4.08112 17.0122 4.0821C16.8482 4.08308 16.6867 4.04241 16.5427 3.96391C16.4023 3.87853 16.2859 3.75884 16.2044 3.61609C16.123 3.47335 16.0792 3.31223 16.0772 3.14791C16.0605 2.69916 16.0169 2.28614 15.8539 1.89544C15.6998 1.52288 15.4738 1.18434 15.1888 0.899148C14.9038 0.613955 14.5654 0.387699 14.1929 0.233302C13.8692 0.0993488 13.5343 0.0468838 13.1805 0.0234419C12.8411 3.11885e-08 12.427 0 11.9302 0H11.8744ZM10.2525 1.78047C10.3384 1.74474 10.469 1.71237 10.738 1.6934C11.0138 1.67442 11.371 1.67442 11.9023 1.67442C12.4337 1.67442 12.7909 1.67442 13.0666 1.6934C13.3356 1.71237 13.4662 1.74474 13.5522 1.78047C13.8949 1.92223 14.1661 2.19349 14.3079 2.53619C14.3525 2.64335 14.3894 2.81191 14.4039 3.21042C14.4374 4.09451 14.8939 4.94623 15.7044 5.41395C16.5148 5.88279 17.4804 5.85154 18.2629 5.43851C18.6156 5.25209 18.7797 5.19963 18.8958 5.18512C19.2626 5.13665 19.6336 5.23583 19.9272 5.46084C20.0009 5.51777 20.0947 5.61488 20.2454 5.83814C20.4005 6.06809 20.5792 6.3773 20.8448 6.83721C21.1105 7.29712 21.288 7.60744 21.4097 7.85526C21.5291 8.09749 21.5659 8.22698 21.5771 8.31963C21.6256 8.6864 21.5264 9.0574 21.3014 9.35107C21.2299 9.44372 21.1027 9.55981 20.7656 9.77191C20.0154 10.243 19.5064 11.0646 19.5064 12C19.5064 12.9354 20.0154 13.757 20.7656 14.2281C21.1027 14.4402 21.2299 14.5563 21.3014 14.6489C21.5269 14.9425 21.6251 15.3131 21.5771 15.6804C21.5659 15.773 21.528 15.9036 21.4097 16.1447C21.288 16.3937 21.1105 16.7029 20.8448 17.1628C20.5792 17.6227 20.3994 17.9319 20.2454 18.1619C20.0947 18.3851 20.0009 18.4822 19.9272 18.5392C19.6336 18.7642 19.2626 18.8633 18.8958 18.8149C18.7797 18.8004 18.6167 18.7479 18.2629 18.5615C17.4815 18.1485 16.5148 18.1172 15.7044 18.5849C14.8939 19.0538 14.4374 19.9055 14.4039 20.7896C14.3894 21.1881 14.3525 21.3567 14.3079 21.4638C14.2378 21.6333 14.1349 21.7872 14.0053 21.9169C13.8756 22.0466 13.7216 22.1494 13.5522 22.2195C13.4662 22.2553 13.3356 22.2876 13.0666 22.3066C12.7909 22.3256 12.4337 22.3256 11.9023 22.3256C11.371 22.3256 11.0138 22.3256 10.738 22.3066C10.469 22.2876 10.3384 22.2553 10.2525 22.2195C10.083 22.1494 9.92904 22.0466 9.79937 21.9169C9.6697 21.7872 9.56686 21.6333 9.49673 21.4638C9.45208 21.3567 9.41524 21.1881 9.40073 20.7896C9.36724 19.9055 8.91069 19.0538 8.10027 18.586C7.28985 18.1172 6.32427 18.1485 5.54176 18.5615C5.18901 18.7479 5.02492 18.8004 4.90883 18.8149C4.54206 18.8633 4.17105 18.7642 3.87738 18.5392C3.80371 18.4822 3.70994 18.3851 3.55924 18.1619C3.34928 17.835 3.14938 17.5019 2.9598 17.1628C2.69413 16.7029 2.51664 16.3926 2.39497 16.1447C2.27552 15.9025 2.23869 15.773 2.22752 15.6804C2.17906 15.3136 2.27823 14.9426 2.50324 14.6489C2.57469 14.5563 2.70194 14.4402 3.03906 14.2281C3.7892 13.757 4.29822 12.9354 4.29822 12C4.29822 11.0646 3.7892 10.243 3.03906 9.77191C2.70194 9.55981 2.57469 9.44372 2.50324 9.35107C2.27823 9.0574 2.17906 8.6864 2.22752 8.31963C2.23869 8.22698 2.27664 8.09637 2.39497 7.85526C2.51664 7.60633 2.69413 7.29712 2.9598 6.83721C3.22548 6.3773 3.4052 6.06809 3.55924 5.83814C3.70994 5.61488 3.80371 5.51777 3.87738 5.46084C4.17105 5.23583 4.54206 5.13665 4.90883 5.18512C5.02492 5.19963 5.1879 5.25209 5.54176 5.43851C6.32315 5.85154 7.28985 5.88279 8.10027 5.41395C8.91069 4.94623 9.36724 4.09451 9.40073 3.21042C9.41524 2.81191 9.45208 2.64335 9.49673 2.53619C9.6385 2.19349 9.90976 1.92223 10.2525 1.78047Z" fill="#8B3E00"/>
</svg>
