<svg width="20" height="21" viewBox="0 0 20 21" fill="none" xmlns="http://www.w3.org/2000/svg">
<path d="M8.33916 1.77129C7.77371 1.5884 7.1616 1.61292 6.6126 1.84047C6.0636 2.06801 5.61361 2.48368 5.34332 3.01295L4.67166 4.32629C4.59184 4.48264 4.46468 4.6098 4.30832 4.68962L2.99416 5.36129C2.46489 5.63157 2.04921 6.08156 1.82167 6.63056C1.59413 7.17956 1.5696 7.79167 1.75249 8.35712L2.20749 9.76129C2.26151 9.92813 2.26151 10.1078 2.20749 10.2746L1.75332 11.6788C1.57044 12.2442 1.59496 12.8563 1.8225 13.4053C2.05005 13.9543 2.46572 14.4043 2.99499 14.6746L4.30832 15.3463C4.46468 15.4261 4.59184 15.5533 4.67166 15.7096L5.34332 17.0238C5.61361 17.5531 6.0636 17.9687 6.6126 18.1963C7.1616 18.4238 7.77371 18.4483 8.33916 18.2655L9.74332 17.8105C9.91017 17.7564 10.0898 17.7564 10.2567 17.8105L11.6608 18.2646C12.2262 18.4476 12.8382 18.4232 13.3872 18.1958C13.9362 17.9684 14.3862 17.5529 14.6567 17.0238L15.3283 15.7096C15.4081 15.5533 15.5353 15.4261 15.6917 15.3463L17.0058 14.6755C17.5353 14.4051 17.9511 13.955 18.1786 13.4058C18.4062 12.8566 18.4306 12.2443 18.2475 11.6788L17.7925 10.2746C17.7385 10.1078 17.7385 9.92813 17.7925 9.76129L18.2467 8.35712C18.4296 7.79177 18.4052 7.17974 18.1778 6.63074C17.9504 6.08176 17.5349 5.63171 17.0058 5.36129L15.6917 4.68962C15.5353 4.6098 15.4081 4.48264 15.3283 4.32629L14.6575 3.01212C14.3872 2.48267 13.9371 2.06686 13.3879 1.83931C12.8387 1.61175 12.2264 1.58734 11.6608 1.77045L10.2567 2.22545C10.0898 2.27947 9.91017 2.27947 9.74332 2.22545L8.33916 1.77129ZM5.63332 9.81545L6.81166 8.63712L9.16832 10.9946L13.8825 6.28045L15.0617 7.45879L9.16832 13.3505L5.63332 9.81545Z" fill="#4CAF50"/>
</svg>
